<?xml version="1.0" encoding="utf-8"?>
<!-- Generator: Adobe Illustrator 28.1.0, SVG Export Plug-In . SVG Version: 6.00 Build 0)  -->
<svg version="1.1" id="Camada_1" xmlns="http://www.w3.org/2000/svg" xmlns:xlink="http://www.w3.org/1999/xlink" x="0px" y="0px"
	 viewBox="0 0 1366 768" style="enable-background:new 0 0 1366 768;" xml:space="preserve">
<style type="text/css">
	.st0{display:none;}
	.st1{fill:url(#SVGID_1_);}
	.st2{fill:url(#SVGID_00000160171125822479607770000009074345697393211325_);}
	.st3{fill:url(#SVGID_00000148637232449067751210000007127092565603372428_);}
	.st4{fill:url(#SVGID_00000026867354877355728630000005493712017810487959_);}
	.st5{fill:url(#SVGID_00000146469265890609031260000000757215477317560980_);}
	.st6{fill:url(#SVGID_00000000917949526524172900000015103844778055590308_);}
	.st7{fill:#FFFFFF;}
	.st8{fill:url(#SVGID_00000105404199994650020260000009301594090183542702_);}
	.st9{fill:url(#SVGID_00000064313960113166087780000016003778039818628494_);}
	.st10{fill:url(#SVGID_00000173129898512501412250000010178944117788850345_);}
	.st11{fill:url(#SVGID_00000097483792575904015870000016174445596290649516_);}
	.st12{fill:url(#SVGID_00000121995880749283223720000011880259290308714678_);}
	.st13{fill:url(#SVGID_00000001645406250509536830000000584445594708044169_);}
	.st14{fill:url(#SVGID_00000097468538979987372130000015557012997875532470_);}
	.st15{fill:url(#SVGID_00000009584578961985187770000008322826284445276601_);}
	.st16{fill:url(#SVGID_00000088844737414611350360000011180355938573509311_);}
	.st17{fill:url(#SVGID_00000046316028323930846950000005476019552630915242_);}
	.st18{fill:url(#SVGID_00000113321853676797428520000014247807210960214196_);}
	.st19{fill:url(#SVGID_00000003792332012575558760000007322403429168878524_);}
	.st20{fill:url(#SVGID_00000117642679598291819130000001208096301515516346_);}
	.st21{fill:url(#SVGID_00000058556465606301463590000005296871709455798165_);}
	.st22{fill:url(#SVGID_00000096764123477939171190000016730653114043301504_);}
	.st23{fill:url(#SVGID_00000058587889515719032840000013020038178574124713_);}
	.st24{fill:url(#SVGID_00000051360644271653267900000004345520829629455799_);}
	.st25{fill:url(#SVGID_00000031921028227070322400000005401687893244480944_);}
	.st26{fill:url(#SVGID_00000132773285045811255420000002652915192283413926_);}
	.st27{fill:url(#SVGID_00000031205781510522511220000004326700476176344506_);}
	.st28{fill:url(#SVGID_00000020391193718333093200000007626405471662935709_);}
	.st29{fill:url(#SVGID_00000069360527263866041470000001668953742432598719_);}
</style>
<rect class="st0" width="1366" height="768"/>
<g>
	<g>
		
			<linearGradient id="SVGID_1_" gradientUnits="userSpaceOnUse" x1="620.5808" y1="676.4082" x2="792.4883" y2="676.4082" gradientTransform="matrix(-0.7071 0.7071 -0.7071 -0.7071 1155.5692 326.9182)">
			<stop  offset="2.770450e-07" style="stop-color:#00C4DE"/>
			<stop  offset="8.581939e-02" style="stop-color:#00A4E8"/>
			<stop  offset="0.1926" style="stop-color:#0084F2"/>
			<stop  offset="0.2955" style="stop-color:#006DF9"/>
			<stop  offset="0.3918" style="stop-color:#005FFD"/>
			<stop  offset="0.4748" style="stop-color:#005AFF"/>
			<stop  offset="0.573" style="stop-color:#0053F4"/>
			<stop  offset="0.7451" style="stop-color:#0041D7"/>
			<stop  offset="0.9695" style="stop-color:#0124A8"/>
			<stop  offset="1" style="stop-color:#0120A1"/>
		</linearGradient>
		<path class="st1" d="M238.8,315.7c-0.1,0.1-0.2,0.2-0.3,0.3c0,0,0,0,0,0.1c-0.1,0.1-0.1,0.1-0.2,0.2c-0.2,0.2-0.3,0.3-0.5,0.5
			c0,0-0.1,0.1-0.1,0.1c-3.4,3-7.5,4.7-11.7,5.1c-11.6,1-22.2,6.9-30.4,15.1l-2,2c-10.1,10.1-15.1,24.1-13.9,38.3
			c1.4,9.1-0.7,18.6-6.1,26.5c-0.1,0.1-0.1,0.2-0.2,0.3c-0.3,0.4-0.5,0.7-0.8,1.1c-0.2,0.2-0.3,0.4-0.5,0.7
			c-0.2,0.2-0.3,0.4-0.5,0.6c-0.3,0.4-0.6,0.7-0.9,1.1c-0.1,0.1-0.2,0.2-0.3,0.3c-0.3,0.4-0.7,0.7-1,1.1c0,0-0.1,0.1-0.1,0.1
			c0,0,0,0,0,0c-0.3,0.3-0.6,0.6-0.9,0.9c-0.1,0.1-0.2,0.2-0.3,0.3c-0.2,0.1-0.3,0.3-0.5,0.4c-0.3,0.3-0.7,0.6-1,0.8
			c-0.1,0.1-0.3,0.2-0.4,0.3c-0.4,0.3-0.7,0.6-1.1,0.8c-0.1,0.1-0.2,0.2-0.4,0.3c-0.4,0.3-0.7,0.5-1.1,0.8c-0.1,0.1-0.3,0.2-0.4,0.3
			c-0.4,0.2-0.7,0.5-1.1,0.7c-0.1,0.1-0.3,0.2-0.4,0.3c-0.4,0.2-0.7,0.4-1.1,0.6c-0.2,0.1-0.4,0.2-0.5,0.3c-0.3,0.2-0.7,0.3-1,0.5
			c-0.2,0.1-0.4,0.2-0.6,0.3c-0.3,0.1-0.6,0.3-0.9,0.4c-0.3,0.1-0.5,0.2-0.8,0.3c-0.2,0.1-0.5,0.2-0.7,0.3c-0.3,0.1-0.6,0.2-1,0.4
			c-0.2,0.1-0.3,0.1-0.5,0.2c-0.4,0.1-0.8,0.3-1.2,0.4l-0.1,0c-2.7,0.7-5.5,1.2-8.3,1.4c0,0,0,0,0,0c-0.3,0-0.7,0-1,0
			c-0.2,0-0.5,0-0.7,0c-0.3,0-0.5,0-0.8,0c-0.3,0-0.7,0-1,0c-0.2,0-0.4,0-0.5,0c-0.4,0-0.9-0.1-1.3-0.1c-0.1,0-0.2,0-0.3,0
			c-0.5-0.1-1.1-0.1-1.6-0.2c0,0,0,0,0,0c-7-1-13.8-4-19.4-9c-15.9-14.3-16.4-38.7-1.5-53.6c0,0,0,0,0,0c0,0,0,0,0,0c0,0,0,0,0,0
			c0.4-0.4,0.7-0.7,1.1-1.1c0.1-0.1,0.2-0.2,0.3-0.3c0.3-0.3,0.7-0.6,1-0.9c0.2-0.1,0.4-0.3,0.5-0.4c0.3-0.2,0.5-0.4,0.8-0.6
			c0.3-0.2,0.6-0.5,0.9-0.7c0.1-0.1,0.2-0.2,0.3-0.2c7.9-5.5,17.4-7.5,26.6-6.1c14.3,1.3,28.5-4.1,38.7-14.3l4-4
			c7.6-7.6,11.5-17.7,12.7-28.4c0.5-4.4,2.4-8.7,5.8-12c0,0,0,0,0,0h0c5.4-5.6,13.7-7.8,21-5C245.7,288.4,248.3,305.7,238.8,315.7z"
			/>
		
			<linearGradient id="SVGID_00000123416422400999530960000012235423104783345281_" gradientUnits="userSpaceOnUse" x1="671.9933" y1="607.1009" x2="838.9703" y2="607.1009" gradientTransform="matrix(-0.7071 0.7071 -0.7071 -0.7071 1155.5692 326.9182)">
			<stop  offset="2.770450e-07" style="stop-color:#00C4DE"/>
			<stop  offset="8.581939e-02" style="stop-color:#00A4E8"/>
			<stop  offset="0.1926" style="stop-color:#0084F2"/>
			<stop  offset="0.2955" style="stop-color:#006DF9"/>
			<stop  offset="0.3918" style="stop-color:#005FFD"/>
			<stop  offset="0.4748" style="stop-color:#005AFF"/>
			<stop  offset="0.573" style="stop-color:#0053F4"/>
			<stop  offset="0.7451" style="stop-color:#0041D7"/>
			<stop  offset="0.9695" style="stop-color:#0124A8"/>
			<stop  offset="1" style="stop-color:#0120A1"/>
		</linearGradient>
		<path style="fill:url(#SVGID_00000123416422400999530960000012235423104783345281_);" d="M132.2,463.2c3.6-4,8.4-6.3,13.4-6.7
			c11-0.9,21.3-6,29.1-13.8l13.3-13.3l1.7-1.7l13.3-13.3c7.8-7.8,12.9-18.1,13.8-29.1c0.4-4.9,2.7-9.7,6.7-13.4
			c7.7-6.9,19.6-6.8,27.1,0.3c8.5,7.8,8.6,21,0.6,29.1c-3.4,3.4-7.6,5.3-12,5.8c-11.2,1.2-21.6,5.9-29.6,13.9l-13.3,13.3l-1.7,1.7
			l-13.3,13.3c-7.9,7.9-12.6,18.4-13.9,29.6c-0.5,4.4-2.4,8.7-5.8,12c-8.1,8.1-21.3,7.9-29.1-0.6
			C125.5,482.7,125.4,470.9,132.2,463.2z"/>
		
			<linearGradient id="SVGID_00000113352530466655422300000014203591271572774577_" gradientUnits="userSpaceOnUse" x1="721.4161" y1="745.6754" x2="838.9703" y2="745.6754" gradientTransform="matrix(-0.7071 0.7071 -0.7071 -0.7071 1155.5692 326.9182)">
			<stop  offset="2.770450e-07" style="stop-color:#00C4DE"/>
			<stop  offset="8.581939e-02" style="stop-color:#00A4E8"/>
			<stop  offset="0.1926" style="stop-color:#0084F2"/>
			<stop  offset="0.2955" style="stop-color:#006DF9"/>
			<stop  offset="0.3918" style="stop-color:#005FFD"/>
			<stop  offset="0.4748" style="stop-color:#005AFF"/>
			<stop  offset="0.573" style="stop-color:#0053F4"/>
			<stop  offset="0.7451" style="stop-color:#0041D7"/>
			<stop  offset="0.9695" style="stop-color:#0124A8"/>
			<stop  offset="1" style="stop-color:#0120A1"/>
		</linearGradient>
		<path style="fill:url(#SVGID_00000113352530466655422300000014203591271572774577_);" d="M118.2,338.3c-3.4,3.4-7.6,5.3-12,5.8
			c-11.2,1.2-21.6,5.9-29.6,13.9l5-5l-1.7,1.7l3.4-3.4c-7.9,7.9-12.6,18.4-13.9,29.6c-0.5,4.4-2.4,8.7-5.8,12
			c-8.1,8.1-21.3,7.9-29.1-0.6c-7-7.6-7.1-19.4-0.3-27.1c3.6-4,8.4-6.3,13.4-6.7c11-0.9,21.3-6,29.1-13.8l-3.4,3.4l1.7-1.7l-5,5
			c7.8-7.8,12.9-18.1,13.8-29.1c0.4-4.9,2.7-9.7,6.7-13.4c7.7-6.9,19.6-6.8,27.1,0.3C126.1,317,126.3,330.3,118.2,338.3z"/>
		
			<linearGradient id="SVGID_00000024705673053157046400000016821737413651685301_" gradientUnits="userSpaceOnUse" x1="818.1002" y1="677.0731" x2="859.8405" y2="677.0731" gradientTransform="matrix(-0.7071 0.7071 -0.7071 -0.7071 1155.5692 326.9182)">
			<stop  offset="2.770450e-07" style="stop-color:#00C4DE"/>
			<stop  offset="8.581939e-02" style="stop-color:#00A4E8"/>
			<stop  offset="0.1926" style="stop-color:#0084F2"/>
			<stop  offset="0.2955" style="stop-color:#006DF9"/>
			<stop  offset="0.3918" style="stop-color:#005FFD"/>
			<stop  offset="0.4748" style="stop-color:#005AFF"/>
			<stop  offset="0.573" style="stop-color:#0053F4"/>
			<stop  offset="0.7451" style="stop-color:#0041D7"/>
			<stop  offset="0.9695" style="stop-color:#0124A8"/>
			<stop  offset="1" style="stop-color:#0120A1"/>
		</linearGradient>
		<circle style="fill:url(#SVGID_00000024705673053157046400000016821737413651685301_);" cx="83.6" cy="441.4" r="20.9"/>
		
			<linearGradient id="SVGID_00000043433501954465675770000006422337800155542176_" gradientUnits="userSpaceOnUse" x1="670.2946" y1="742.9702" x2="699.8048" y2="742.9702" gradientTransform="matrix(-0.7071 0.7071 -0.7071 -0.7071 1155.5692 326.9182)">
			<stop  offset="2.770450e-07" style="stop-color:#00C4DE"/>
			<stop  offset="8.581939e-02" style="stop-color:#00A4E8"/>
			<stop  offset="0.1926" style="stop-color:#0084F2"/>
			<stop  offset="0.2955" style="stop-color:#006DF9"/>
			<stop  offset="0.3918" style="stop-color:#005FFD"/>
			<stop  offset="0.4748" style="stop-color:#005AFF"/>
			<stop  offset="0.573" style="stop-color:#0053F4"/>
			<stop  offset="0.7451" style="stop-color:#0041D7"/>
			<stop  offset="0.9695" style="stop-color:#0124A8"/>
			<stop  offset="1" style="stop-color:#0120A1"/>
		</linearGradient>
		<circle style="fill:url(#SVGID_00000043433501954465675770000006422337800155542176_);" cx="145.8" cy="286" r="14.8"/>
	</g>
	<g>
		
			<linearGradient id="SVGID_00000046299546055041707630000017655758855655111355_" gradientUnits="userSpaceOnUse" x1="286.0056" y1="383.8799" x2="515.5082" y2="383.8799">
			<stop  offset="2.770450e-07" style="stop-color:#00C4DE"/>
			<stop  offset="8.581939e-02" style="stop-color:#00A4E8"/>
			<stop  offset="0.1926" style="stop-color:#0084F2"/>
			<stop  offset="0.2955" style="stop-color:#006DF9"/>
			<stop  offset="0.3918" style="stop-color:#005FFD"/>
			<stop  offset="0.4748" style="stop-color:#005AFF"/>
			<stop  offset="0.573" style="stop-color:#0053F4"/>
			<stop  offset="0.7451" style="stop-color:#0041D7"/>
			<stop  offset="0.9695" style="stop-color:#0124A8"/>
			<stop  offset="1" style="stop-color:#0120A1"/>
		</linearGradient>
		<path style="fill:url(#SVGID_00000046299546055041707630000017655758855655111355_);" d="M384.3,332.6c2.2,0,3.4,1,3.4,3.2v60.6
			c0,28-11.3,38.7-41,38.7h-57.4c-2.1,0-3.2-1-3.2-3.2v-14.4c0-2.2,1.2-3.2,3.2-3.2h56.5c15.1,0,19.5-4.5,19.5-20.1v-58.4
			c0-2.2,1-3.2,3.2-3.2H384.3z M508.5,332.6c2.1,0,3.2,1,3.2,3.2V350c0,2.1-1.2,3.2-3.2,3.2h-73.4c-5.3,0-7.8,2.5-7.8,7.9v5
			c0,5.3,2.3,7.5,7.8,7.5h54.8c16.4,0,25.6,9.4,25.6,25.8v11.9c0,15.1-9.1,23.9-25.9,23.9h-81.1c-2.2,0-3.2-1-3.2-3.2v-14.2
			c0-2.1,1-3.2,3.2-3.2h76.9c5.1,0,7.8-2.5,7.8-7.9v-6c0-5.3-2.2-7.5-7.6-7.5h-54.9c-16.4,0-25.5-9.4-25.5-25.8v-10.8
			c0-15.1,8.9-23.9,25.8-23.9H508.5z"/>
		<g>
			<path class="st7" d="M660.8,333.6c2,0,3.2,1,3.2,3.2v14.1c0,2-1.2,3.2-3.2,3.2H588c-5.2,0-7.7,2.5-7.7,7.9v4.9
				c0,5.2,2.3,7.4,7.7,7.4h54.4c16.3,0,25.5,9.3,25.5,25.6v11.8c0,15-9,23.7-25.7,23.7h-80.6c-2.2,0-3.2-1-3.2-3.2v-14.1
				c0-2,1-3.2,3.2-3.2h76.4c5.1,0,7.7-2.5,7.7-7.9v-6c0-5.2-2.2-7.4-7.6-7.4h-54.5c-16.3,0-25.3-9.3-25.3-25.6v-10.8
				c0-15,8.9-23.7,25.6-23.7H660.8z"/>
			<path class="st7" d="M698.6,333.6c1.7,0,2.6,0.4,3.5,1.7l38.3,50.8l38.4-50.8c1-1.3,1.9-1.7,3.5-1.7h19.5c1.7,0,2.3,1.5,1.3,2.9
				l-52.2,67.8v27.9c0,2-1.2,3.2-3.3,3.2h-15.6c-2.2,0-3.3-1.2-3.3-3.2v-27.9l-51.8-67.8c-1-1.5-0.3-2.9,1.5-2.9H698.6z"/>
			<path class="st7" d="M911.1,333.6c2,0,3.2,1,3.2,3.2v14.1c0,2-1.2,3.2-3.2,3.2h-72.9c-5.2,0-7.7,2.5-7.7,7.9v4.9
				c0,5.2,2.3,7.4,7.7,7.4h54.4c16.3,0,25.5,9.3,25.5,25.6v11.8c0,15-9,23.7-25.7,23.7h-80.6c-2.2,0-3.2-1-3.2-3.2v-14.1
				c0-2,1-3.2,3.2-3.2h76.4c5.1,0,7.7-2.5,7.7-7.9v-6c0-5.2-2.2-7.4-7.6-7.4h-54.5c-16.3,0-25.3-9.3-25.3-25.6v-10.8
				c0-15,8.9-23.7,25.6-23.7H911.1z"/>
			<path class="st7" d="M1045.4,333.6c2.2,0,3.3,1,3.3,3.2V351c0,2.2-1.2,3.2-3.3,3.2h-45.8v78c0,2.2-0.9,3.2-3.1,3.2h-15.9
				c-2,0-3.2-1-3.2-3.2v-78h-45.8c-2,0-3.2-1-3.2-3.2v-14.3c0-2.2,1.2-3.2,3.2-3.2H1045.4z"/>
			<path class="st7" d="M1162.5,333.6c2,0,3.2,1,3.2,3.2v14.1c0,2-1.2,3.2-3.2,3.2h-63.9c-15,0-18.9,4.2-18.9,19.5v0.7h81.9
				c2,0,3.2,1,3.2,3.2v12.9c0,2.2-1.2,3.2-3.2,3.2h-81.9v1.7c0,15.3,3.9,19.5,18.9,19.5h63.9c2,0,3.2,1.2,3.2,3.2v14.1
				c0,2.2-1.2,3.2-3.2,3.2h-64c-29.5,0-40.7-10.6-40.7-38.4v-25c0-27.8,11.2-38.4,40.7-38.4H1162.5z"/>
			<path class="st7" d="M1211.6,333.6c8.6,0,11.8,1.7,15.6,11.1l29.8,69.8c0.4,0.9,1.2,1.3,2,1.3h1.7c1,0,1.7-0.4,2-1.3l29.7-69.8
				c3.6-9.3,6.7-11.1,15.4-11.1h16.1c10,0,12.8,3.8,12.8,15.1v83.5c0,2.2-1.2,3.2-3.3,3.2h-15.3c-2,0-3.2-1-3.2-3.2v-75.9
				c0-1-0.3-1.5-1-1.5h-1.3c-1.2,0-1.7,0.3-2,1.2l-28.1,65.2c-4.4,10.9-9.2,14.3-18.6,14.3h-8.3c-9.5,0-14.1-3.3-18.6-14.3
				l-28.4-65.2c-0.4-0.9-0.9-1.2-1.9-1.2h-1.3c-0.9,0-1.3,0.4-1.3,1.5v75.9c0,2.2-1,3.2-3.2,3.2h-15.3c-2.2,0-3.2-1-3.2-3.2v-83.5
				c0-11.5,2.6-15.1,12.7-15.1H1211.6z"/>
		</g>
	</g>
</g>
</svg>
